<?xml version="1.0" standalone="no"?>
<!DOCTYPE svg PUBLIC "-//W3C//DTD SVG 20010904//EN"
 "http://www.w3.org/TR/2001/REC-SVG-20010904/DTD/svg10.dtd">
<svg version="1.0" xmlns="http://www.w3.org/2000/svg"
 width="1280.000000pt" height="1228.000000pt" viewBox="0 0 1280.000000 1228.000000"
 preserveAspectRatio="xMidYMid meet">
<g transform="translate(0.000000,1228.000000) scale(0.100000,-0.100000)"
fill="#000000" stroke="none">
<path d="M3540 10505 c-554 -80 -1039 -339 -1418 -758 -437 -482 -704 -1136
-783 -1922 -21 -199 -18 -670 4 -820 132 -887 619 -1548 1648 -2233 193 -128
316 -206 649 -407 574 -347 762 -470 1040 -681 709 -538 1376 -1265 1618
-1766 31 -64 59 -117 62 -117 3 0 28 48 56 107 218 453 923 1225 1651 1805
318 253 504 381 1098 752 729 455 1060 695 1369 995 488 474 748 967 838 1595
20 140 17 662 -5 850 -92 774 -361 1395 -802 1854 -355 368 -793 604 -1285
691 -157 28 -486 38 -641 20 -474 -54 -899 -230 -1299 -538 -106 -82 -394
-369 -484 -482 -157 -199 -330 -479 -442 -717 -29 -62 -56 -113 -61 -113 -4 0
-37 61 -72 136 -186 390 -407 711 -686 990 -233 233 -445 389 -715 523 -232
115 -440 183 -690 227 -130 22 -520 28 -650 9z"/>
</g>
</svg>
